<svg width="16" height="18" viewBox="0 0 16 18" fill="none" xmlns="http://www.w3.org/2000/svg">
<path d="M4.25 2.52778H3.55017C2.57008 2.52778 2.07967 2.52778 1.70532 2.72154C1.37604 2.89199 1.10852 3.16375 0.940739 3.49826C0.75 3.87855 0.75 4.37675 0.75 5.3724V6.08333M4.25 2.52778H11.25M4.25 2.52778V0.75M11.25 2.52778H11.9502C12.9303 2.52778 13.4196 2.52778 13.794 2.72154C14.1233 2.89199 14.3917 3.16375 14.5594 3.49826C14.75 3.87818 14.75 4.37577 14.75 5.36948V6.08333M11.25 2.52778V0.75M0.75 6.08333V13.9057C0.75 14.9014 0.75 15.3989 0.940739 15.7792C1.10852 16.1137 1.37604 16.386 1.70532 16.5564C2.0793 16.75 2.56912 16.75 3.5473 16.75H11.9527C12.9309 16.75 13.42 16.75 13.794 16.5564C14.1233 16.386 14.3917 16.1137 14.5594 15.7792C14.75 15.3993 14.75 14.9024 14.75 13.9087V6.08333M0.75 6.08333H14.75M11.25 13.1944H11.2517L11.2517 13.1962L11.25 13.1962V13.1944ZM7.75 13.1944H7.75175L7.75171 13.1962L7.75 13.1962V13.1944ZM4.25 13.1944H4.25175L4.25171 13.1962L4.25 13.1962V13.1944ZM11.2517 9.63889V9.64067L11.25 9.64063V9.63889H11.2517ZM7.75 9.63889H7.75175L7.75171 9.64067L7.75 9.64063V9.63889ZM4.25 9.63889H4.25175L4.25171 9.64067L4.25 9.64063V9.63889Z" stroke="white" stroke-width="1.5" stroke-linecap="round" stroke-linejoin="round"/>
</svg>
