<svg width="17" height="18" viewBox="0 0 17 18" fill="none" xmlns="http://www.w3.org/2000/svg">
<path d="M11.5836 6.08333L7.13916 11.4167L4.91667 8.75M0.75 13.9057V3.59462C0.75 2.59897 0.75 2.10077 0.931656 1.72049C1.09144 1.38598 1.34623 1.11421 1.65983 0.943766C2.01635 0.75 2.48341 0.75 3.41683 0.75H13.0835C14.0169 0.75 14.483 0.75 14.8395 0.943766C15.1531 1.11421 15.4087 1.38598 15.5685 1.72049C15.75 2.1004 15.75 2.59799 15.75 3.5917V13.9087C15.75 14.9024 15.75 15.3993 15.5685 15.7792C15.4087 16.1137 15.1531 16.386 14.8395 16.5564C14.4833 16.75 14.0175 16.75 13.0859 16.75H3.41409C2.48249 16.75 2.016 16.75 1.65983 16.5564C1.34623 16.386 1.09144 16.1137 0.931656 15.7792C0.75 15.3989 0.75 14.9014 0.75 13.9057Z" stroke="white" stroke-width="1.5" stroke-linecap="round" stroke-linejoin="round"/>
</svg>
