<svg width="16" height="16" viewBox="0 0 16 16" fill="none" xmlns="http://www.w3.org/2000/svg">
<path d="M10.8614 5.41667L6.71322 10.0833L4.63889 7.75M0.75 12.2613V3.23904C0.75 2.36785 0.75 1.93193 0.919545 1.59918C1.06868 1.30648 1.30648 1.06868 1.59918 0.919545C1.93193 0.75 2.36785 0.75 3.23904 0.75H12.2613C13.1325 0.75 13.5674 0.75 13.9002 0.919545C14.1929 1.06868 14.4315 1.30648 14.5806 1.59918C14.75 1.9316 14.75 2.367 14.75 3.23649V12.2639C14.75 13.1334 14.75 13.5682 14.5806 13.9006C14.4315 14.1933 14.1929 14.4315 13.9002 14.5806C13.5678 14.75 13.133 14.75 12.2635 14.75H3.23649C2.367 14.75 1.9316 14.75 1.59918 14.5806C1.30648 14.4315 1.06868 14.1933 0.919545 13.9006C0.75 13.5678 0.75 13.1325 0.75 12.2613Z" stroke="white" stroke-width="1.5" stroke-linecap="round" stroke-linejoin="round"/>
</svg>
