<svg width="21" height="21" viewBox="0 0 21 21" fill="none" xmlns="http://www.w3.org/2000/svg">
<rect width="21" height="21" rx="3" fill="#BADF1E"/>
<path d="M4.66663 11.8213H10.401C10.2994 12.6574 10.094 13.4599 9.79846 14.2158H4.66663V11.8213ZM16.3326 16.6104H8.44592C9.0019 15.8882 9.45928 15.0832 9.79846 14.2158H16.3326V16.6104ZM16.3326 11.8213H10.401C10.4491 11.4249 10.4772 11.0211 10.4772 10.6113C10.4772 10.2103 10.4501 9.81498 10.4039 9.42676H16.3326V11.8213ZM4.66663 7.03125H9.80823C10.1016 7.7877 10.3046 8.59051 10.4039 9.42676H4.66663V7.03125ZM16.3326 7.03125H9.80823C9.47197 6.16436 9.01811 5.35937 8.46545 4.63672H16.3326V7.03125Z" fill="black"/>
</svg>
