<svg width="12" height="13" viewBox="0 0 12 13" fill="none" xmlns="http://www.w3.org/2000/svg">
<path d="M0 7.39062H5.89844C5.79398 8.25062 5.58329 9.07601 5.2793 9.85352H0V7.39062ZM12 12.3154H3.88867C4.46022 11.5728 4.9306 10.7454 5.2793 9.85352H12V12.3154ZM12 7.39062H5.89844C5.94798 6.98275 5.97656 6.56715 5.97656 6.14551C5.97655 5.73313 5.9488 5.32697 5.90137 4.92773H12V7.39062ZM0 2.46289H5.28906C5.59101 3.24119 5.79913 4.06729 5.90137 4.92773H0V2.46289ZM12 2.46289H5.28906C4.94305 1.57099 4.47497 0.743432 3.90625 0H12V2.46289Z" fill="white"/>
</svg>
