<svg width="85" height="96" viewBox="0 0 85 96" fill="none" xmlns="http://www.w3.org/2000/svg">
<path d="M56.6611 43.6735V17.0356H70.8306V41.5936C66.0411 42.0466 61.318 42.7674 56.6611 43.6735Z" fill="white"/>
<path d="M28.3388 52.3432V0H42.5082V47.2361C37.6856 48.6982 32.9459 50.4074 28.3388 52.3637V52.3432Z" fill="white"/>
<path d="M1.81445e-05 68.2408V27.257H14.1694V59.2417C9.264 61.96 4.55743 64.9871 1.81445e-05 68.2408Z" fill="white"/>
<path d="M70.8306 75.5573V41.5937C75.4874 41.1406 80.2106 40.8935 85 40.8935V75.5573H70.8306Z" fill="white"/>
<path d="M56.6609 43.6736V95.7788H42.4915V47.2362C47.1152 45.8152 51.8549 44.6415 56.6609 43.6942V43.6736Z" fill="white"/>
<path d="M28.3389 52.3431L28.3389 86H14.1694V59.2417C18.7434 56.6882 23.4831 54.4024 28.3389 52.3637V52.3431Z" fill="white"/>
</svg>
