<svg width="42" height="49" viewBox="0 0 42 49" fill="none" xmlns="http://www.w3.org/2000/svg">
<path d="M14.0027 22.2917V8.69524H7.00137V21.2301C9.36791 21.4613 11.7017 21.8292 14.0027 22.2917Z" fill="black"/>
<path d="M27.9974 26.7168V0H20.996V24.1101C23.3789 24.8564 25.7209 25.7288 27.9974 26.7273V26.7168Z" fill="black"/>
<path d="M42 34.8312V13.9124H34.9986V30.238C37.4225 31.6254 39.7481 33.1705 42 34.8312Z" fill="black"/>
<path d="M7.00136 38.5657L7.00137 21.2301C4.70034 20.9988 2.36654 20.8727 0 20.8727V38.5657H7.00136Z" fill="black"/>
<path d="M14.0027 22.2917L14.0029 43.7829H21.0042V24.1101C18.7196 23.3849 16.3776 22.7857 14.0029 22.3022L14.0027 22.2917Z" fill="black"/>
<path d="M27.9974 26.7168L27.9973 49H34.9986L34.9986 30.238C32.7386 28.9346 30.3967 27.7679 27.9974 26.7273V26.7168Z" fill="black"/>
</svg>
