<svg width="17" height="17" viewBox="0 0 17 17" fill="none" xmlns="http://www.w3.org/2000/svg">
<path d="M5.87207 5.81135C6.0144 5.37277 6.27513 4.98247 6.62565 4.6829C6.97618 4.38334 7.40316 4.18648 7.85856 4.11423C8.31396 4.04198 8.78018 4.097 9.20622 4.27336C9.63225 4.44971 10.0012 4.74062 10.2723 5.11361C10.5434 5.48659 10.7057 5.92713 10.742 6.3868C10.7782 6.84647 10.6865 7.30732 10.4772 7.71818C10.2679 8.12904 9.94948 8.47374 9.55634 8.71468C9.1632 8.95562 8.71109 9.08314 8.25 9.08314V9.91686M8.2915 12.4167V12.5L8.2085 12.5002V12.4167H8.2915ZM0.75 13.0835V3.41683C0.75 2.48341 0.75 2.01635 0.931656 1.65983C1.09144 1.34623 1.34623 1.09144 1.65983 0.931656C2.01635 0.75 2.48341 0.75 3.41683 0.75H13.0835C14.0169 0.75 14.483 0.75 14.8395 0.931656C15.1531 1.09144 15.4087 1.34623 15.5685 1.65983C15.75 2.016 15.75 2.48249 15.75 3.41409V13.0863C15.75 14.0179 15.75 14.4837 15.5685 14.8399C15.4087 15.1535 15.1531 15.4087 14.8395 15.5685C14.4833 15.75 14.0175 15.75 13.0859 15.75H3.41409C2.48249 15.75 2.016 15.75 1.65983 15.5685C1.34623 15.4087 1.09144 15.1535 0.931656 14.8399C0.75 14.4834 0.75 14.0169 0.75 13.0835Z" stroke="white" stroke-width="1.5" stroke-linecap="round" stroke-linejoin="round"/>
</svg>
