<svg width="18" height="17" viewBox="0 0 18 17" fill="none" xmlns="http://www.w3.org/2000/svg">
<path d="M0.883621 6.86716C0.628601 6.63531 0.767129 6.21616 1.11207 6.17595L5.99965 5.60602C6.14023 5.58963 6.26234 5.50284 6.32164 5.37646L8.38315 0.982599C8.52864 0.672507 8.97705 0.672447 9.12253 0.982539L11.184 5.37636C11.2433 5.50275 11.3647 5.58977 11.5052 5.60616L16.3931 6.17595C16.738 6.21616 16.8762 6.63543 16.6211 6.86729L13.008 10.1528C12.9041 10.2473 12.8578 10.3879 12.8854 10.5244L13.8443 15.2704C13.912 15.6053 13.5494 15.8648 13.2463 15.698L8.95162 13.334C8.82809 13.266 8.67802 13.2664 8.55449 13.3343L4.25932 15.6974C3.95622 15.8642 3.59297 15.6053 3.66067 15.2704L4.61973 10.5247C4.64732 10.3882 4.60116 10.2473 4.49723 10.1528L0.883621 6.86716Z" stroke="#BADF1E" stroke-width="1.5" stroke-linecap="round" stroke-linejoin="round"/>
</svg>
