<svg width="11" height="13" viewBox="0 0 11 13" fill="none" xmlns="http://www.w3.org/2000/svg">
<path d="M3.88654 8.54405H0.853084V11.5996M6.31331 3.65516H9.34677V0.599609M0.600098 4.26836C0.940261 3.42029 1.50979 2.68535 2.24396 2.14708C2.97812 1.60881 3.84823 1.28865 4.75396 1.22325C5.65969 1.15786 6.56493 1.34969 7.36781 1.77698C8.17068 2.20428 8.8379 2.85005 9.29467 3.64057M9.6001 7.93115C9.25993 8.77922 8.6904 9.51415 7.95624 10.0524C7.22207 10.5907 6.35285 10.9105 5.44712 10.9758C4.54139 11.0412 3.63541 10.8494 2.83254 10.4221C2.02966 9.99485 1.36199 9.3492 0.905221 8.55868" stroke="white" stroke-width="1.2" stroke-linecap="round" stroke-linejoin="round"/>
</svg>
