<svg width="16" height="16" viewBox="0 0 16 16" fill="none" xmlns="http://www.w3.org/2000/svg">
<path d="M5.61945 3.63799L1.65589 7.60155C1.19419 8.06325 0.963218 8.29423 0.856548 8.55175C0.714321 8.89512 0.714563 9.28091 0.85679 9.62427C0.96346 9.88179 1.19431 10.1126 1.65601 10.5743C2.47689 9.75346 3.80757 9.75323 4.62845 10.5741C5.44933 11.395 5.44944 12.726 4.62856 13.5469C5.09026 14.0086 5.32111 14.2394 5.57863 14.3461C5.922 14.4883 6.30762 14.4884 6.65099 14.3462C6.90851 14.2395 7.13954 14.0086 7.60124 13.5469L11.5648 9.58334M5.61945 3.63799L7.60124 1.65621C8.06293 1.19451 8.29378 0.963665 8.55131 0.856995C8.89467 0.714768 9.28053 0.714934 9.6239 0.85716C9.88142 0.96383 10.1123 1.19468 10.574 1.65638C9.75309 2.47726 9.75303 3.808 10.5739 4.62888C11.3948 5.44976 12.7256 5.44981 13.5465 4.62893C14.0082 5.09063 14.2391 5.32148 14.3457 5.579C14.488 5.92237 14.488 6.30807 14.3457 6.65143C14.2391 6.90896 14.0083 7.13986 13.5466 7.60155L11.5648 9.58334M5.61945 3.63799L11.5648 9.58334" stroke="#BADF1E" stroke-width="1.5" stroke-linecap="round" stroke-linejoin="round"/>
</svg>
