<svg width="17" height="16" viewBox="0 0 17 16" fill="none" xmlns="http://www.w3.org/2000/svg">
<path d="M8.5 5.37503V9.75002M2.09488 10.7998C1.33055 12.1781 0.948493 12.8675 1.00558 13.433C1.05538 13.9263 1.30403 14.3744 1.68943 14.6659C2.13113 15 2.89498 15 4.4226 15H12.5774C14.105 15 14.8688 15 15.3105 14.6659C15.6959 14.3744 15.9446 13.9263 15.9944 13.433C16.0515 12.8675 15.6696 12.1781 14.9052 10.7998L10.8293 3.44987C10.065 2.07159 9.68262 1.38257 9.18368 1.15129C8.74849 0.949568 8.25123 0.949568 7.81604 1.15129C7.31731 1.38247 6.93521 2.0715 6.17151 3.44863L2.09488 10.7998ZM8.54268 12.375V12.4625L8.45814 12.4627V12.375H8.54268Z" stroke="black" stroke-width="2" stroke-linecap="round" stroke-linejoin="round"/>
</svg>
