<svg width="15" height="14" viewBox="0 0 15 14" fill="none" xmlns="http://www.w3.org/2000/svg">
<path d="M7.25 4.50003V8.25002M1.69889 9.14987C1.03648 10.3313 0.705361 10.9222 0.754838 11.4069C0.797994 11.8297 1.01349 12.2137 1.3475 12.4636C1.73031 12.75 2.39232 12.75 3.71626 12.75H10.7837C12.1077 12.75 12.7696 12.75 13.1524 12.4636C13.4864 12.2137 13.702 11.8297 13.7452 11.4069C13.7946 10.9222 13.4636 10.3313 12.8012 9.14987L9.26871 2.84989C8.60629 1.66851 8.27494 1.07792 7.84253 0.879681C7.46536 0.706773 7.0344 0.706773 6.65723 0.879681C6.225 1.07783 5.89385 1.66843 5.23198 2.84883L1.69889 9.14987ZM7.28699 10.5V10.575L7.21372 10.5752V10.5H7.28699Z" stroke="#BADF1E" stroke-width="1.5" stroke-linecap="round" stroke-linejoin="round"/>
</svg>
