<svg width="35" height="35" viewBox="0 0 35 35" fill="none" xmlns="http://www.w3.org/2000/svg">
<rect width="35" height="35" fill="#BADF1E"/>
<path d="M21.1965 16.3983V9.44531H24.895V15.8554C23.6449 15.9737 22.4121 16.1618 21.1965 16.3983Z" fill="black"/>
<path d="M13.8037 18.6626V5H17.5022V17.3295C16.2434 17.7112 15.0063 18.1573 13.8037 18.668V18.6626Z" fill="black"/>
<path d="M6.40649 22.8109V12.1133H10.105V20.4619C8.82457 21.1714 7.59606 21.9616 6.40649 22.8109Z" fill="black"/>
<path d="M24.8948 24.7218V15.8566C26.1103 15.7383 27.3431 15.6738 28.5933 15.6738V24.7218H24.8948Z" fill="black"/>
<path d="M21.1963 16.3994V29.9999H17.4978V17.3293C18.7047 16.9584 19.9418 16.652 21.1963 16.4048V16.3994Z" fill="black"/>
<path d="M13.8037 18.6611L13.8037 27.4462H10.1052V20.4618C11.2991 19.7953 12.5363 19.1986 13.8037 18.6665V18.6611Z" fill="black"/>
</svg>
